<?xml version="1.0" encoding="utf-8"?>
<!-- Generator: Adobe Illustrator 24.3.0, SVG Export Plug-In . SVG Version: 6.00 Build 0)  -->
<svg version="1.1" id="Layer_1" xmlns="http://www.w3.org/2000/svg" xmlns:xlink="http://www.w3.org/1999/xlink" x="0px" y="0px"
	 width="190px" height="43.5px" viewBox="0 0 190 43.5" style="enable-background:new 0 0 190 43.5;" xml:space="preserve">
<style type="text/css">
	.st0{enable-background:new    ;}
	.st1{fill:#17355E;}
</style>
<g>
	<g class="st0">
		<path class="st1" d="M76.2,29.4c2.1,0,3.7,1.7,3.7,3.7s-1.7,3.7-3.7,3.7s-3.7-1.7-3.7-3.7S74.2,29.4,76.2,29.4z"/>
	</g>
	<g class="st0">
		<path class="st1" d="M91.9,26.3c-0.6,0.2-1.3,0.3-2,0.3c-5.4,0-8.9-4.1-8.9-9.3c0-5.9,4.7-9.8,10.6-9.8c6,0,10.6,3.9,10.6,9.8
			c0,4.1-1.6,6.6-3.4,9.5l-6.2,9.8h-7.4L91.9,26.3z M91.6,22c2.7,0,4.6-1.9,4.6-4.5s-1.9-4.4-4.6-4.4S87,15,87,17.6S88.9,22,91.6,22
			z"/>
		<path class="st1" d="M115.7,26.3c-0.6,0.2-1.3,0.3-2,0.3c-5.4,0-8.9-4.1-8.9-9.3c0-5.9,4.7-9.8,10.6-9.8c6,0,10.6,3.9,10.6,9.8
			c0,4.1-1.6,6.6-3.4,9.5l-6.2,9.8H109L115.7,26.3z M115.4,22c2.7,0,4.6-1.9,4.6-4.5s-1.9-4.4-4.6-4.4s-4.6,1.9-4.6,4.5
			S112.7,22,115.4,22z"/>
	</g>
	<g class="st0">
		<path class="st1" d="M137.6,5.9l4.6,1.4l-12.1,31.4l-4.6-1.4L137.6,5.9z"/>
	</g>
	<g class="st0">
		<path class="st1" d="M141.3,20.9h4.6V23h0.1c0.6-1.2,2.2-2.5,4.6-2.5c2.2,0,4,0.9,4.8,2.8c1.1-2,2.6-2.8,5-2.8
			c4.3,0,5.6,3,5.6,6.8v9.3h-4.8v-9.1c0-1.5-0.5-2.7-2.1-2.7c-2.2,0-2.9,1.6-2.9,3.5v8.3h-4.8v-8.3c0-1.2,0.1-3.5-2.2-3.5
			c-2.5,0-2.9,2-2.9,4v7.8h-4.8C141.3,36.5,141.3,20.9,141.3,20.9z"/>
		<path class="st1" d="M177.6,20.5c4.8,0,8.7,3.2,8.7,8.2s-3.9,8.2-8.7,8.2s-8.7-3.2-8.7-8.2S172.7,20.5,177.6,20.5z M177.6,32.7
			c2.4,0,3.9-1.6,3.9-4s-1.5-4-3.9-4s-3.9,1.6-3.9,4S175.2,32.7,177.6,32.7z"/>
	</g>
	<g class="st0">
		<path class="st1" d="M16.1,7.4c2.9,0,6.2,0.7,8.6,2.5l-3.8,4.7c-1.3-1.1-3-1.6-4.7-1.7v6.4l3.8,1.1c3.5,1,5.8,3.5,5.8,7.2
			c0,5.6-4.4,8.5-9.6,9v2.8h-2.6v-2.8c-3.5,0-7.2-0.8-9.9-3.2l4.2-4.8c1.4,1.7,3.5,2.3,5.6,2.5v-6.8l-3-0.8c-4-1.3-6.2-3.4-6.2-7.5
			c0-5,4.4-8.1,9.1-8.6V4.6H16L16.1,7.4L16.1,7.4z M13.4,13c-1.5,0.3-2.9,1-2.9,2.7c0,2.4,2.2,2.6,2.9,2.9V13z M16.1,31.1
			c1.6-0.3,3.4-1.1,3.4-3c0-1.7-1.2-2.2-2.6-2.8l-0.8-0.2V31.1z"/>
	</g>
	<g>
		<path class="st1" d="M62.4,26.3c-0.3,0.1-0.6,0.1-1,0.2c-0.3,0.1-0.7,0.1-1,0.1c-1.3,0-2.5-0.2-3.6-0.7s-2-1.1-2.8-2
			c-0.8-0.8-1.4-1.8-1.8-2.9c-0.4-1.1-0.6-2.3-0.6-3.6c0-1.5,0.3-2.8,0.8-4s1.3-2.2,2.2-3.1c0.9-0.9,2.1-1.5,3.3-2
			c1.3-0.5,2.7-0.7,4.2-0.7s2.8,0.2,4.1,0.7c1.3,0.5,2.4,1.1,3.4,2c0.9,0.9,1.7,1.9,2.2,3.1s0.8,2.5,0.8,4c0,1-0.1,1.9-0.3,2.8
			c-0.2,0.8-0.4,1.6-0.7,2.4c-0.3,0.7-0.7,1.5-1.1,2.1c-0.4,0.7-0.8,1.4-1.3,2.1L63,36.5h-7.3L62.4,26.3z M57.5,17.6
			c0,1.3,0.4,2.3,1.3,3.2c0.8,0.8,1.9,1.3,3.3,1.3s2.5-0.4,3.3-1.3c0.8-0.8,1.3-1.9,1.3-3.2c0-1.3-0.4-2.3-1.3-3.2
			c-0.8-0.8-1.9-1.3-3.3-1.3s-2.5,0.4-3.3,1.3C58,15.3,57.5,16.3,57.5,17.6z"/>
	</g>
</g>
<g>
	<path class="st1" d="M40.1,30.8H27.7v-5L39.3,8.1h6.6v17.6h3.6v5h-3.6v5.7h-5.8V30.8z M40.1,16L40.1,16l-6.4,9.8h6.4V16z"/>
</g>
</svg>
