<?xml version="1.0" encoding="utf-8"?>
<!-- Generator: Adobe Illustrator 23.0.2, SVG Export Plug-In . SVG Version: 6.00 Build 0)  -->
<svg version="1.1" id="Layer_1" xmlns="http://www.w3.org/2000/svg" xmlns:xlink="http://www.w3.org/1999/xlink" x="0px" y="0px"
	 viewBox="0 0 576 229.7" style="enable-background:new 0 0 576 229.7;" xml:space="preserve">
<style type="text/css">
	.st0{fill:#E14642;}
	.st1{fill:#58595B;}
</style>
<g>
	<polygon class="st0" points="0,56.5 0,175.5 22.6,175.5 22.6,125.5 77.3,125.5 77.3,106.3 22.6,106.3 22.6,76.4 80.5,76.4 
		80.5,56.5 	"/>
	<g>
		<path class="st0" d="M141.4,114.2c-3-1-5.4-1.7-8.5-1.7c-12.7,0-23,12.7-23,31v32H88.3v-81h21.4v13.2h0.4
			c4.9-9.6,11.8-15.2,22.3-15.2c3.8,0,6.4,0.9,9.1,1.9v19.8H141.4z"/>
		<path class="st0" d="M562.3,114.2c-3-1-5.4-1.7-8.5-1.7c-12.7,0-23,12.7-23,31v32h-21.6v-81h21.4v13.2h0.3
			c4.9-9.6,11.8-15.2,22.3-15.2c3.8,0,6.4,0.9,9.1,1.9L562.3,114.2L562.3,114.2z"/>
		<path class="st0" d="M231.8,135.1c0,21.2-16.9,42.3-44.8,42.3c-27.2,0-44.2-19.9-44.2-42.1c0-25.4,21.2-42.7,43.4-42.7
			C216.1,92.6,231.8,114.3,231.8,135.1 M165.9,134.9c0,14.5,10.8,23.3,21.8,23.3c12.5,0,20.9-11.8,20.9-23
			c0-11.8-8.7-23.5-20.7-23.5C175.4,111.7,165.9,121.7,165.9,134.9"/>
		<path class="st0" d="M314.5,175.5h-21.6v-47c0-8.4-2.4-15-11.8-15c-13.1,0-20.7,13.6-20.7,29.1v32.9h-21.6v-81h21.6v12.7
			c3.5-5.2,9.9-14.6,25.6-14.6c19.5,0,28.6,13.4,28.6,30.1v52.8H314.5z"/>
		<rect x="386.9" y="94.5" class="st0" width="21.6" height="81"/>
		<path class="st0" d="M498.5,137.9h-59.9c1.2,4,2.3,7,5.1,10.5c5.2,6.3,12.9,9.2,19.7,9.2c11.8,0,22.6-6.1,32-13.4v22.1
			c-7.1,3.8-20.5,11.1-35.5,11.1c-25.8,0-43.7-19.7-43.7-42.1c0-22.6,18.1-42.7,42.1-42.7c24.4,0,40.2,17.4,40.2,42L498.5,137.9
			L498.5,137.9z M475.2,123.1c-1.4-9.2-9.4-14.3-16.4-14.3c-1.7,0-13.8,0.5-18.3,14.3H475.2z"/>
		<path class="st0" d="M352.7,70.3v24.4h22.6v16.2h-21.9v35.3c0,9.1,4.9,11.3,10.5,11.3c4.4,0,8.2-1.4,11.5-2.8v19.2
			c-6.4,1.7-13.1,2.8-19.7,2.8c-14.6,0-23.9-7.5-23.9-23.2v-42.7h-13.4V94.7h13.4V70.2L352.7,70.3"/>
		<path class="st0" d="M372.5,45.5c0,5.7-4.6,10.3-10.3,10.3c-5.7,0-10.3-4.6-10.3-10.3s4.6-10.3,10.3-10.3S372.5,39.8,372.5,45.5"
			/>
		<path class="st0" d="M334.8,25.7c0,4.8-3.9,8.7-8.7,8.7c-4.8,0-8.7-3.9-8.7-8.7s3.9-8.7,8.7-8.7C330.9,17.1,334.8,21,334.8,25.7"
			/>
		<path class="st0" d="M298.8,13.3c0,4.5-3.6,8.1-8.1,8.1s-8.1-3.6-8.1-8.1s3.6-8.1,8.1-8.1C295.1,5.2,298.8,8.8,298.8,13.3"/>
		<path class="st0" d="M260.3,7c0,3.9-3.1,7-7,7s-7-3.2-7-7c0-3.9,3.2-7,7-7C257.1,0,260.3,3.2,260.3,7"/>
		<path class="st0" d="M221.3,7c0,3.3-2.7,6-6,6s-6-2.7-6-6s2.7-6,6-6C218.6,1.1,221.3,3.8,221.3,7"/>
		<path class="st0" d="M183.5,11.9c0,2.9-2.4,5.3-5.3,5.3c-2.9,0-5.3-2.4-5.3-5.3s2.4-5.3,5.3-5.3C181.1,6.6,183.5,9,183.5,11.9"/>
		<path class="st0" d="M146.3,25.5c0,2-1.6,3.7-3.7,3.7c-2,0-3.7-1.6-3.7-3.7c0-2,1.6-3.7,3.7-3.7S146.3,23.5,146.3,25.5"/>
		<path class="st0" d="M115.7,46c0,1.3-1,2.3-2.3,2.3s-2.3-1-2.3-2.3s1-2.3,2.3-2.3S115.7,44.7,115.7,46"/>
		<path class="st0" d="M97.3,68.7c0,0.9-0.8,1.7-1.7,1.7c-0.9,0-1.7-0.8-1.7-1.7c0-0.9,0.8-1.7,1.7-1.7C96.6,67,97.3,67.8,97.3,68.7
			"/>
		<path class="st0" d="M408.9,73.1c0,6.3-5.2,11.3-11.5,11.3c-6.6,0-11.5-5.4-11.5-11.5c0-6.8,5.7-11.5,11-11.5
			C400.9,61.4,408.9,64.7,408.9,73.1"/>
		<path class="st1" d="M32.2,224.3c-3.6,3.6-8.3,5.3-13.3,5.3c-12.8,0-18.7-8.9-18.7-18.2s6-18.6,18.7-18.6c4.8,0,9.3,1.7,13,5.4
			l-3.8,3.6c-2.6-2.5-5.9-3.6-9.2-3.6c-9.1,0-13.1,6.6-13.1,13.2c0,6.5,3.9,12.9,13.1,12.9c3.3,0,6.9-1.4,9.4-3.8L32.2,224.3z"/>
		<path class="st1" d="M74.6,211.3c0,9.6-5.8,18.3-18.1,18.3s-18.1-9-18.1-18.3c0-10.8,7.5-18.6,18.2-18.6
			C68.7,192.8,74.6,201.8,74.6,211.3 M56.5,224.4c8.8,0,12.5-6.3,12.5-13c0-6.5-3.7-13.3-12.4-13.5c-8.2,0-12.6,5.7-12.6,13.5
			C44.1,217.7,47.7,224.4,56.5,224.4"/>
		<polygon class="st1" points="116,201.8 104,218.5 102.7,218.5 90.8,201.8 90.8,228.9 85.2,228.9 85.2,193.5 91.8,193.5 
			103.5,210.1 115.1,193.5 121.7,193.5 121.7,228.9 116,228.9 		"/>
	</g>
	<g>
		<polygon class="st1" points="165.1,201.8 153,218.5 151.8,218.5 139.9,201.8 139.9,228.9 134.2,228.9 134.2,193.5 140.8,193.5 
			152.5,210.1 164.2,193.5 170.7,193.5 170.7,228.9 165.1,228.9 		"/>
		<path class="st1" d="M213,193.5v20.8c0,10.4-6.9,15.6-15.4,15.3c-7.9-0.2-14.6-5.3-14.6-15.3v-20.8h5.6v20.8c0,6.4,3.7,10,9,10.1
			c5.7,0.3,9.8-3.3,9.8-10.1v-20.8H213z"/>
	</g>
	<g>
		<polygon class="st1" points="249.7,218.7 249.7,193.5 255.4,193.5 255.4,228.9 251.1,228.9 231,203.9 231,228.9 225.2,228.9 
			225.2,193.5 229.6,193.5 		"/>
		<rect x="267.9" y="193.5" class="st1" width="5.6" height="35.4"/>
		<path class="st1" d="M316,224.3c-3.6,3.6-8.3,5.3-13.3,5.3c-12.8,0-18.7-8.9-18.7-18.2s6-18.6,18.7-18.6c4.8,0,9.3,1.7,13,5.4
			l-3.8,3.6c-2.6-2.5-5.9-3.6-9.2-3.6c-9.1,0-13.1,6.6-13.1,13.2c0,6.5,3.9,12.9,13.1,12.9c3.3,0,6.9-1.4,9.4-3.8L316,224.3z"/>
		<path class="st1" d="M350.8,221.5h-19.2l-3.3,7.4h-6l15.9-35.4h6.2l15.9,35.4h-6L350.8,221.5z M341.2,199.4l-7.5,16.9h15
			L341.2,199.4z"/>
		<polygon class="st1" points="372.5,198.6 360.9,198.6 360.9,193.5 389.8,193.5 389.8,198.6 378.2,198.6 378.2,228.9 372.5,228.9 
					"/>
		<rect x="398.6" y="193.5" class="st1" width="5.6" height="35.4"/>
		<path class="st1" d="M450.9,211.3c0,9.6-5.8,18.3-18.1,18.3c-12.3,0-18.1-9-18.1-18.3c0-10.8,7.5-18.6,18.2-18.6
			C445,192.8,450.9,201.8,450.9,211.3 M432.8,224.4c8.8,0,12.5-6.3,12.5-13c0-6.5-3.7-13.3-12.4-13.5c-8.3,0-12.6,5.7-12.6,13.5
			C420.4,217.7,423.9,224.4,432.8,224.4"/>
		<polygon class="st1" points="485.9,218.7 485.9,193.5 491.6,193.5 491.6,228.9 487.3,228.9 467.2,203.9 467.2,228.9 461.5,228.9 
			461.5,193.5 465.8,193.5 		"/>
	</g>
	<g>
		<path class="st1" d="M525.3,201.6c-1.7-2.4-5.1-3.9-8.8-3.9c-4.8,0-8.2,2-8.2,5.1c0,3.4,3.9,4.4,8.6,5.1c7.3,1.1,14.2,3,14.2,10.9
			s-7.3,10.9-14.7,10.9c-6.8,0-12-2.1-15.2-8l4.3-2.8c2.6,4.3,6.9,5.8,11,5.8c4.3,0,9-1.4,9-5.9c0-3.6-4-5.1-9.1-5.7
			c-7-1-13.7-2.7-13.7-10.3c0.2-6.8,7.2-9.9,13.7-9.9c5.1,0,10.2,1.2,13.2,6L525.3,201.6z"/>
		<path class="st0" d="M564.5,95.6v-1.1h4.9v1.1h-1.8v4.4h-1.2v-4.4H564.5z M571.4,94.4l1.7,2.4l1.7-2.4h1.2v5.6h-1.2l0.1-3.7
			l-1.7,2.3h-0.3l-1.6-2.4l0.1,3.7h-1.2v-5.6L571.4,94.4L571.4,94.4z"/>
	</g>
</g>
</svg>
